<?xml version="1.0" encoding="UTF-8" standalone="no"?>
<svg
   xmlns:dc="http://purl.org/dc/elements/1.1/"
   xmlns:cc="http://creativecommons.org/ns#"
   xmlns:rdf="http://www.w3.org/1999/02/22-rdf-syntax-ns#"
   xmlns:svg="http://www.w3.org/2000/svg"
   xmlns="http://www.w3.org/2000/svg"
   xmlns:sodipodi="http://sodipodi.sourceforge.net/DTD/sodipodi-0.dtd"
   xmlns:inkscape="http://www.inkscape.org/namespaces/inkscape"
   width="442"
   height="94"
   id="svg2"
   version="1.1"
   inkscape:version="0.91 r13725"
   sodipodi:docname="ActasCongresoFemeninoInternacionaldjvu5 (2).svg">
  <metadata
     id="metadata12">
    <rdf:RDF>
      <cc:Work
         rdf:about="">
        <dc:format>image/svg+xml</dc:format>
        <dc:type
           rdf:resource="http://purl.org/dc/dcmitype/StillImage" />
      </cc:Work>
    </rdf:RDF>
  </metadata>
  <defs
     id="defs10" />
  <sodipodi:namedview
     pagecolor="#ffffff"
     bordercolor="#666666"
     borderopacity="1"
     objecttolerance="10"
     gridtolerance="10"
     guidetolerance="10"
     inkscape:pageopacity="0"
     inkscape:pageshadow="2"
     inkscape:window-width="1220"
     inkscape:window-height="452"
     id="namedview8"
     showgrid="false"
     inkscape:zoom="3.967477"
     inkscape:cx="126.21337"
     inkscape:cy="63.389114"
     inkscape:window-x="176"
     inkscape:window-y="0"
     inkscape:window-maximized="0"
     inkscape:current-layer="svg2" />
  <path
     style="fill:#070707;stroke:none"
     d="M 19.731862,28.261326 C 21.025053,33.376071 28.999363,37.548296 36,39.293494 52.5441,43.417795 70.0834,42 87,42 l 223,0 38,0 c 6.819,0 14.363,-0.8911 21,0.9282 5.115,1.4022 8.502,4.8735 12.999,7.365 1.638,0.9075 4.524,2.0921 5.915,0.0887 1.416,-2.0395 -0.567,-4.4696 -2.063,-5.7446 C 382.039,41.3885 375.895,39.143 371,38.3256 363.619,37.093 355.471,38 348,38 l -43,0 -158,0 c -26.473,0 -66.543035,0.89964 -80.252049,-0.0895 -8.926304,-0.644055 -18.7669,-1.2804 -27,-4.9506 -7.032,-3.1349 -11.562274,-8.207733 -15.418171,-9.345067 -3.855897,-1.137334 -5.308708,1.856871 -4.597918,4.646493 z M 139.55796,36.183631 C 123.02099,26.161792 106.90209,27.198846 101,28.2863 c -2.4288,0.4916 -12.331,2.1839 -10.6543,6.3958 1.3691,3.4392 6.8269,-0.4435 8.6543,-1.284 7.32,-3.3666 16.86028,-2.854731 24.44928,-0.820331 4.428,1.1871 6.80626,2.09016 9.46977,3.472193 m -57.963606,7.969796 c -3.185426,0.07479 -8.235921,-0.334337 -10.378244,1.582842 -1.642928,1.470267 -2.9717,5.6632 0.4861,5.7763 1.9748,0.0646 3.6438,-1.6359 5.0818,-2.747 M 282,48 l 57,0 c 5.8278,0 20.63091,0.10543 23.9556,0.0079 3.58919,-0.105289 4.13952,-1.110009 4.11342,-2.010121 -0.0278,-0.957437 -0.36378,-1.949797 -4.36303,-1.937404 C 357.60354,44.076188 349.901,44 345,44 l -43,0 -143,0 -59.334483,0.07606 c -3.750443,0.03151 -4.030348,1.144774 -4.028676,2.013415 0.0017,0.868641 0.481938,1.878331 4.02316,1.958456 z m 114,0 c 6.394,0.0529 10.287,1.9079 15.999,4.4275 1.563,0.6893 3.893,1.5155 5.249,-0.071 2.294,-2.6821 -2.279,-5.4191 -4.253,-6.2084 C 408.295,44.2691 398.984,43.3972 396,48 M 166.55891,50 C 199.01386,64.149136 211.41193,62.22013 225,60.1003 c 3.648,-0.753193 9.07002,-1.943359 12.70001,-4.22815 5.82338,-3.932048 1.94268,-7.343488 -3.04253,-5.00211 -12.97145,5.970673 -18.26612,7.04184 -26.23348,7.26656 -11.37584,0.3912 -24.51077,-4.546615 -33.92553,-7.979069 m 80.41142,10.145743 c 2.644,-1.22 7.347,-5.537205 5.00646,-7.971497 -1.98408,-2.077839 -5.44781,-0.23893 -7.71451,1.236956 -3.87489,2.523018 -9.04644,7.522692 -23.89539,10.412664 9.35442,0.305699 18.71044,-0.03582 26.60344,-3.678123 z M 252,66 c 8.81429,-2.758484 10.665,-0.6846 15.981,-1.3179 1.619,-0.193 3.786,-0.9254 4.098,-2.8025 0.563,-3.3921 -4.755,-4.3864 -7.079,-4.1759 -5.161,0.4675 -10.566,3.8483 -13,8.2963 m -32.76009,2.593065 c 0.76862,-0.396801 0.75796,-3.607602 -3.65248,-4.526557 1.72428,2.019442 1.80796,5.47879 3.65248,4.526557 z M 223,65 c 3.15004,4.060979 10.733,8.8502 16.999,9.3148 2.651,0.1965 7.404,-0.513 6.964,-4.2608 -0.234,-1.9946 -2.183,-3.1318 -3.983,-3.4467 -3.001,-0.5248 -5.975,1.0865 -8.98,1.0339 C 227.92054,67.512688 225.03968,65.947962 223,65 m 37,5 c 4.77128,-0.312374 5.77467,1.266157 8.61423,1.90576 2.83956,0.639603 6.43281,-0.896429 4.36643,-4.022237 C 270.55783,64.312149 262.434,66.4476 260,70 m -40.212,11.6782 c 1.123,3.3342 5.431,1.4465 6.455,-0.9066 2.005,-4.6069 -1.63301,-8.323305 -5.04842,-12.604855 C 222.35037,76.659762 219.022,79.4064 219.788,81.6782 Z m 20.80149,-2.291909 c 1.04916,-3.594106 -5.32696,-1.951933 -10.76061,-6.129004 0.74315,1.572786 2.52109,5.306386 5.00759,7.021264 2.29802,1.584887 5.0687,1.452042 5.75302,-0.89226 z m -11.88741,-2.558737 c -0.0355,2.023758 -0.48005,5.642257 -0.85323,6.813158 -2.06025,6.464312 11.35799,3.034134 0.85323,-6.813158 z"
     id="path6"
     inkscape:connector-curvature="0"
     sodipodi:nodetypes="csscscscssscssczcccsccccssccsssscscczccccccccccccsccsccccccsscsccccccczccccccscsscsc" />
</svg>
