<svg id="Layer_1" data-name="Layer 1" xmlns="http://www.w3.org/2000/svg" viewBox="0 0 421 388"><title>logo</title><path d="M391,225H232V30A30.09,30.09,0,0,0,202,0a29.73,29.73,0,0,0-9.39,1.52,29.75,29.75,0,0,0-8.28,3.25L20.66,99.27a30.09,30.09,0,0,0-11,41h0a30.09,30.09,0,0,0,41,11L172,81.18V240.89L20.66,328.27a30.09,30.09,0,0,0-11,41h0a30.09,30.09,0,0,0,41,11l163.68-94.5c.41-.23.8-.48,1.19-.73H391a30.09,30.09,0,0,0,30-30h0A30.09,30.09,0,0,0,391,225Z"/><path d="M50.66,263.23l87.22-50.36a30.09,30.09,0,0,0,11-41h0a30.09,30.09,0,0,0-41-11L20.66,211.27a30.09,30.09,0,0,0-11,41h0A30.09,30.09,0,0,0,50.66,263.23Z"/></svg>